# xmcd CD database file
#
# Track frame offsets:
#	150
#	24195
#	60807
#	90552
#	126100
#	172162
#
# Disc length: 2595 seconds
#
# Revision: 2
# Processed by: cddbd v1.5.1PL0 Copyright (c) Steve Scherf et al.
# Submitted via: CDex 1.51
#
DISCID=3e0a2106
DTITLE=Luther Allison - Sweet Home Chicago
DYEAR=1996
DGENRE=Blues
TTITLE0=Dust My Broom
TTITLE1=I Got Worries
TTITLE2=You Don't Love Me
TTITLE3=Goin' Down
TTITLE4=I'm Gonna Leave You Alone
TTITLE5=Sweet Home Chicago
EXTD=YEAR: 1996
EXTT0=
EXTT1=
EXTT2=
EXTT3=
EXTT4=
EXTT5=
PLAYORDER=
